<svg xmlns="http://www.w3.org/2000/svg" xmlns:xlink="http://www.w3.org/1999/xlink" width="120" zoomAndPan="magnify" viewBox="0 0 90 89.999999" height="120" preserveAspectRatio="xMidYMid meet" version="1.2"><defs><clipPath id="a85b833590"><path d="M 12 34.738281 L 32 34.738281 L 32 38 L 12 38 Z M 12 34.738281 "/></clipPath><clipPath id="3a367f7215"><path d="M 11.300781 39 L 15 39 L 15 46 L 11.300781 46 Z M 11.300781 39 "/></clipPath><clipPath id="9d3dc18c41"><path d="M 30 39 L 33.800781 39 L 33.800781 46 L 30 46 Z M 30 39 "/></clipPath><clipPath id="ba6d1de6c1"><path d="M 12 44 L 32 44 L 32 56.488281 L 12 56.488281 Z M 12 44 "/></clipPath></defs><g id="7c5da82bf9"><rect x="0" width="90" y="0" height="89.999999" style="fill:#ffffff;fill-opacity:1;stroke:none;"/><rect x="0" width="90" y="0" height="89.999999" style="fill:#ffffff;fill-opacity:1;stroke:none;"/><g clip-rule="nonzero" clip-path="url(#a85b833590)"><path style=" stroke:none;fill-rule:nonzero;fill:#0194ff;fill-opacity:1;" d="M 13.839844 37.320312 C 13.367188 37.320312 12.980469 36.933594 12.980469 36.460938 L 12.980469 35.601562 C 12.980469 35.125 13.367188 34.738281 13.839844 34.738281 L 31.035156 34.738281 C 31.507812 34.738281 31.894531 35.125 31.894531 35.601562 L 31.894531 36.460938 C 31.894531 36.933594 31.507812 37.320312 31.035156 37.320312 Z M 13.839844 37.320312 "/></g><g clip-rule="nonzero" clip-path="url(#3a367f7215)"><path style=" stroke:none;fill-rule:nonzero;fill:#0194ff;fill-opacity:1;" d="M 13.007812 39.898438 L 11.515625 44.171875 C 11.515625 44.171875 11.503906 45.050781 12.390625 45.050781 C 13.132812 45.050781 13.136719 44.171875 13.136719 44.171875 L 14.402344 39.898438 Z M 13.007812 39.898438 "/></g><path style=" stroke:none;fill-rule:nonzero;fill:#0194ff;fill-opacity:1;" d="M 16.5 39.898438 L 15.5625 44.171875 C 15.5625 44.171875 15.570312 45.050781 16.417969 45.050781 C 17.269531 45.050781 17.179688 44.171875 17.179688 44.171875 L 17.898438 39.898438 Z M 16.5 39.898438 "/><path style=" stroke:none;fill-rule:nonzero;fill:#0194ff;fill-opacity:1;" d="M 19.992188 39.898438 L 19.605469 44.171875 C 19.605469 44.171875 19.617188 45.050781 20.4375 45.050781 C 21.253906 45.050781 21.222656 44.171875 21.222656 44.171875 L 21.390625 39.898438 Z M 19.992188 39.898438 "/><path style=" stroke:none;fill-rule:nonzero;fill:#0194ff;fill-opacity:1;" d="M 23.484375 39.898438 L 23.648438 44.171875 C 23.648438 44.171875 23.621094 45.050781 24.464844 45.050781 C 25.308594 45.050781 25.269531 44.171875 25.269531 44.171875 L 24.882812 39.898438 Z M 23.484375 39.898438 "/><path style=" stroke:none;fill-rule:nonzero;fill:#0194ff;fill-opacity:1;" d="M 26.976562 39.898438 L 27.695312 44.171875 C 27.695312 44.171875 27.753906 45.050781 28.546875 45.050781 C 29.285156 45.050781 29.3125 44.171875 29.3125 44.171875 L 28.375 39.898438 Z M 26.976562 39.898438 "/><g clip-rule="nonzero" clip-path="url(#9d3dc18c41)"><path style=" stroke:none;fill-rule:nonzero;fill:#0194ff;fill-opacity:1;" d="M 30.46875 39.898438 L 31.742188 44.171875 C 31.742188 44.171875 31.691406 45.050781 32.578125 45.050781 C 33.464844 45.050781 33.359375 44.171875 33.359375 44.171875 L 31.867188 39.898438 Z M 30.46875 39.898438 "/></g><path style=" stroke:none;fill-rule:nonzero;fill:#0194ff;fill-opacity:1;" d="M 12.980469 40.757812 L 12.980469 39.039062 C 12.980469 38.566406 13.367188 38.179688 13.839844 38.179688 L 31.035156 38.179688 C 31.507812 38.179688 31.894531 38.566406 31.894531 39.039062 L 31.894531 40.757812 Z M 12.980469 40.757812 "/><g clip-rule="nonzero" clip-path="url(#ba6d1de6c1)"><path style=" stroke:none;fill-rule:nonzero;fill:#0194ff;fill-opacity:1;" d="M 31.722656 44.195312 C 31.722656 44.214844 31.726562 44.234375 31.726562 44.25 C 31.726562 44.921875 31.183594 45.46875 30.511719 45.46875 C 29.839844 45.46875 29.292969 44.921875 29.292969 44.25 C 29.292969 44.234375 29.296875 44.214844 29.300781 44.195312 L 27.691406 44.195312 C 27.691406 44.214844 27.699219 44.234375 27.699219 44.25 C 27.699219 44.921875 27.152344 45.46875 26.480469 45.46875 C 25.808594 45.46875 25.261719 44.921875 25.261719 44.25 C 25.261719 44.234375 25.269531 44.214844 25.269531 44.195312 L 23.648438 44.195312 C 23.648438 44.214844 23.65625 44.234375 23.65625 44.25 C 23.65625 44.921875 23.109375 45.46875 22.4375 45.46875 C 21.765625 45.46875 21.21875 44.921875 21.21875 44.25 C 21.21875 44.234375 21.226562 44.214844 21.226562 44.195312 L 19.605469 44.195312 C 19.605469 44.214844 19.609375 44.234375 19.609375 44.25 C 19.609375 44.921875 19.066406 45.46875 18.394531 45.46875 C 17.722656 45.46875 17.175781 44.921875 17.175781 44.25 C 17.175781 44.234375 17.183594 44.214844 17.183594 44.195312 L 15.5625 44.195312 C 15.5625 44.214844 15.566406 44.234375 15.566406 44.25 C 15.566406 44.921875 15.023438 45.46875 14.351562 45.46875 C 13.675781 45.46875 13.132812 44.921875 13.132812 44.25 C 13.132812 44.234375 13.136719 44.214844 13.136719 44.195312 L 12.980469 44.195312 L 12.980469 55.371094 C 12.980469 55.847656 13.367188 56.230469 13.839844 56.230469 L 25.015625 56.230469 L 25.015625 47.636719 L 29.3125 47.636719 L 29.3125 56.230469 L 31.035156 56.230469 C 31.507812 56.230469 31.894531 55.847656 31.894531 55.371094 L 31.894531 44.195312 Z M 22.4375 53.652344 L 15.558594 53.652344 L 15.558594 47.636719 L 22.4375 47.636719 Z M 22.4375 53.652344 "/></g><g style="fill:#0194ff;fill-opacity:1;"><g transform="translate(36.74946, 41.203382)"><path style="stroke:none" d="M 4.21875 0 L 1.90625 -2.828125 L 1.90625 0 L 0.625 0 L 0.625 -6.359375 L 1.90625 -6.359375 L 1.90625 -3.5 L 4.21875 -6.359375 L 5.75 -6.359375 L 3.140625 -3.203125 L 5.828125 0 Z M 4.21875 0 "/></g></g><g style="fill:#0194ff;fill-opacity:1;"><g transform="translate(42.790681, 41.203382)"><path style="stroke:none" d="M 0.296875 -2.546875 C 0.296875 -3.054688 0.394531 -3.503906 0.59375 -3.890625 C 0.800781 -4.285156 1.078125 -4.585938 1.421875 -4.796875 C 1.773438 -5.015625 2.171875 -5.125 2.609375 -5.125 C 2.984375 -5.125 3.3125 -5.046875 3.59375 -4.890625 C 3.875 -4.742188 4.097656 -4.554688 4.265625 -4.328125 L 4.265625 -5.046875 L 5.5625 -5.046875 L 5.5625 0 L 4.265625 0 L 4.265625 -0.734375 C 4.109375 -0.492188 3.882812 -0.296875 3.59375 -0.140625 C 3.300781 0.00390625 2.96875 0.078125 2.59375 0.078125 C 2.164062 0.078125 1.773438 -0.03125 1.421875 -0.25 C 1.078125 -0.46875 0.800781 -0.773438 0.59375 -1.171875 C 0.394531 -1.566406 0.296875 -2.023438 0.296875 -2.546875 Z M 4.265625 -2.515625 C 4.265625 -2.828125 4.203125 -3.09375 4.078125 -3.3125 C 3.960938 -3.539062 3.800781 -3.710938 3.59375 -3.828125 C 3.382812 -3.953125 3.164062 -4.015625 2.9375 -4.015625 C 2.695312 -4.015625 2.476562 -3.953125 2.28125 -3.828125 C 2.082031 -3.710938 1.921875 -3.546875 1.796875 -3.328125 C 1.671875 -3.109375 1.609375 -2.847656 1.609375 -2.546875 C 1.609375 -2.242188 1.671875 -1.976562 1.796875 -1.75 C 1.921875 -1.519531 2.082031 -1.34375 2.28125 -1.21875 C 2.488281 -1.09375 2.707031 -1.03125 2.9375 -1.03125 C 3.164062 -1.03125 3.382812 -1.085938 3.59375 -1.203125 C 3.800781 -1.328125 3.960938 -1.5 4.078125 -1.71875 C 4.203125 -1.945312 4.265625 -2.210938 4.265625 -2.515625 Z M 4.265625 -2.515625 "/></g></g><g style="fill:#0194ff;fill-opacity:1;"><g transform="translate(48.968587, 41.203382)"><path style="stroke:none" d="M 3.421875 -5.125 C 4.023438 -5.125 4.507812 -4.929688 4.875 -4.546875 C 5.25 -4.171875 5.4375 -3.640625 5.4375 -2.953125 L 5.4375 0 L 4.15625 0 L 4.15625 -2.78125 C 4.15625 -3.1875 4.054688 -3.492188 3.859375 -3.703125 C 3.660156 -3.921875 3.390625 -4.03125 3.046875 -4.03125 C 2.691406 -4.03125 2.410156 -3.921875 2.203125 -3.703125 C 2.003906 -3.492188 1.90625 -3.1875 1.90625 -2.78125 L 1.90625 0 L 0.625 0 L 0.625 -5.046875 L 1.90625 -5.046875 L 1.90625 -4.421875 C 2.070312 -4.640625 2.285156 -4.8125 2.546875 -4.9375 C 2.816406 -5.0625 3.109375 -5.125 3.421875 -5.125 Z M 3.421875 -5.125 "/></g></g><g style="fill:#0194ff;fill-opacity:1;"><g transform="translate(54.991583, 41.203382)"><path style="stroke:none" d="M 2.109375 -4 L 2.109375 -1.5625 C 2.109375 -1.382812 2.148438 -1.257812 2.234375 -1.1875 C 2.316406 -1.113281 2.457031 -1.078125 2.65625 -1.078125 L 3.25 -1.078125 L 3.25 0 L 2.4375 0 C 1.363281 0 0.828125 -0.519531 0.828125 -1.5625 L 0.828125 -4 L 0.234375 -4 L 0.234375 -5.046875 L 0.828125 -5.046875 L 0.828125 -6.296875 L 2.109375 -6.296875 L 2.109375 -5.046875 L 3.25 -5.046875 L 3.25 -4 Z M 2.109375 -4 "/></g></g><g style="fill:#0194ff;fill-opacity:1;"><g transform="translate(58.527022, 41.203382)"><path style="stroke:none" d="M 1.28125 -5.640625 C 1.050781 -5.640625 0.859375 -5.710938 0.703125 -5.859375 C 0.554688 -6.003906 0.484375 -6.179688 0.484375 -6.390625 C 0.484375 -6.609375 0.554688 -6.785156 0.703125 -6.921875 C 0.859375 -7.066406 1.050781 -7.140625 1.28125 -7.140625 C 1.5 -7.140625 1.679688 -7.066406 1.828125 -6.921875 C 1.984375 -6.785156 2.0625 -6.609375 2.0625 -6.390625 C 2.0625 -6.179688 1.984375 -6.003906 1.828125 -5.859375 C 1.679688 -5.710938 1.5 -5.640625 1.28125 -5.640625 Z M 1.90625 -5.046875 L 1.90625 0 L 0.625 0 L 0.625 -5.046875 Z M 1.90625 -5.046875 "/></g></g><g style="fill:#0194ff;fill-opacity:1;"><g transform="translate(61.060148, 41.203382)"><path style="stroke:none" d="M 3.421875 -5.125 C 4.023438 -5.125 4.507812 -4.929688 4.875 -4.546875 C 5.25 -4.171875 5.4375 -3.640625 5.4375 -2.953125 L 5.4375 0 L 4.15625 0 L 4.15625 -2.78125 C 4.15625 -3.1875 4.054688 -3.492188 3.859375 -3.703125 C 3.660156 -3.921875 3.390625 -4.03125 3.046875 -4.03125 C 2.691406 -4.03125 2.410156 -3.921875 2.203125 -3.703125 C 2.003906 -3.492188 1.90625 -3.1875 1.90625 -2.78125 L 1.90625 0 L 0.625 0 L 0.625 -5.046875 L 1.90625 -5.046875 L 1.90625 -4.421875 C 2.070312 -4.640625 2.285156 -4.8125 2.546875 -4.9375 C 2.816406 -5.0625 3.109375 -5.125 3.421875 -5.125 Z M 3.421875 -5.125 "/></g></g><g style="fill:#0194ff;fill-opacity:1;"><g transform="translate(36.74946, 53.352562)"><path style="stroke:none" d="M 4.234375 -3.265625 C 4.585938 -3.191406 4.878906 -3.007812 5.109375 -2.71875 C 5.347656 -2.425781 5.46875 -2.09375 5.46875 -1.71875 C 5.46875 -1.382812 5.382812 -1.085938 5.21875 -0.828125 C 5.050781 -0.566406 4.804688 -0.363281 4.484375 -0.21875 C 4.171875 -0.0703125 3.800781 0 3.375 0 L 0.625 0 L 0.625 -6.359375 L 3.25 -6.359375 C 3.6875 -6.359375 4.0625 -6.285156 4.375 -6.140625 C 4.6875 -6.003906 4.921875 -5.8125 5.078125 -5.5625 C 5.234375 -5.3125 5.3125 -5.03125 5.3125 -4.71875 C 5.3125 -4.34375 5.210938 -4.03125 5.015625 -3.78125 C 4.828125 -3.539062 4.566406 -3.367188 4.234375 -3.265625 Z M 1.90625 -3.734375 L 3.0625 -3.734375 C 3.375 -3.734375 3.609375 -3.800781 3.765625 -3.9375 C 3.929688 -4.070312 4.015625 -4.269531 4.015625 -4.53125 C 4.015625 -4.78125 3.929688 -4.972656 3.765625 -5.109375 C 3.609375 -5.253906 3.375 -5.328125 3.0625 -5.328125 L 1.90625 -5.328125 Z M 3.1875 -1.03125 C 3.5 -1.03125 3.738281 -1.101562 3.90625 -1.25 C 4.082031 -1.394531 4.171875 -1.601562 4.171875 -1.875 C 4.171875 -2.144531 4.078125 -2.359375 3.890625 -2.515625 C 3.710938 -2.671875 3.46875 -2.75 3.15625 -2.75 L 1.90625 -2.75 L 1.90625 -1.03125 Z M 3.1875 -1.03125 "/></g></g><g style="fill:#0194ff;fill-opacity:1;"><g transform="translate(42.60844, 53.352562)"><path style="stroke:none" d="M 5.3125 -2.625 C 5.3125 -2.445312 5.300781 -2.285156 5.28125 -2.140625 L 1.59375 -2.140625 C 1.625 -1.773438 1.75 -1.488281 1.96875 -1.28125 C 2.195312 -1.070312 2.476562 -0.96875 2.8125 -0.96875 C 3.28125 -0.96875 3.613281 -1.171875 3.8125 -1.578125 L 5.1875 -1.578125 C 5.039062 -1.097656 4.757812 -0.703125 4.34375 -0.390625 C 3.9375 -0.078125 3.429688 0.078125 2.828125 0.078125 C 2.347656 0.078125 1.914062 -0.0234375 1.53125 -0.234375 C 1.144531 -0.453125 0.84375 -0.757812 0.625 -1.15625 C 0.40625 -1.550781 0.296875 -2.003906 0.296875 -2.515625 C 0.296875 -3.046875 0.398438 -3.503906 0.609375 -3.890625 C 0.828125 -4.285156 1.128906 -4.585938 1.515625 -4.796875 C 1.898438 -5.015625 2.335938 -5.125 2.828125 -5.125 C 3.304688 -5.125 3.734375 -5.019531 4.109375 -4.8125 C 4.492188 -4.613281 4.789062 -4.320312 5 -3.9375 C 5.207031 -3.5625 5.3125 -3.125 5.3125 -2.625 Z M 4 -3 C 3.988281 -3.320312 3.867188 -3.582031 3.640625 -3.78125 C 3.410156 -3.976562 3.128906 -4.078125 2.796875 -4.078125 C 2.484375 -4.078125 2.21875 -3.976562 2 -3.78125 C 1.78125 -3.59375 1.648438 -3.332031 1.609375 -3 Z M 4 -3 "/></g></g><g style="fill:#0194ff;fill-opacity:1;"><g transform="translate(48.230513, 53.352562)"><path style="stroke:none" d="M 1.90625 -4.265625 C 2.070312 -4.523438 2.285156 -4.734375 2.546875 -4.890625 C 2.804688 -5.046875 3.109375 -5.125 3.453125 -5.125 L 3.453125 -3.78125 L 3.109375 -3.78125 C 2.710938 -3.78125 2.410156 -3.6875 2.203125 -3.5 C 2.003906 -3.3125 1.90625 -2.984375 1.90625 -2.515625 L 1.90625 0 L 0.625 0 L 0.625 -5.046875 L 1.90625 -5.046875 Z M 1.90625 -4.265625 "/></g></g><g style="fill:#0194ff;fill-opacity:1;"><g transform="translate(51.911743, 53.352562)"><path style="stroke:none" d="M 0.296875 -2.546875 C 0.296875 -3.054688 0.394531 -3.503906 0.59375 -3.890625 C 0.800781 -4.285156 1.082031 -4.585938 1.4375 -4.796875 C 1.789062 -5.015625 2.179688 -5.125 2.609375 -5.125 C 2.941406 -5.125 3.253906 -5.050781 3.546875 -4.90625 C 3.847656 -4.769531 4.085938 -4.582031 4.265625 -4.34375 L 4.265625 -6.734375 L 5.5625 -6.734375 L 5.5625 0 L 4.265625 0 L 4.265625 -0.75 C 4.109375 -0.5 3.882812 -0.296875 3.59375 -0.140625 C 3.3125 0.00390625 2.984375 0.078125 2.609375 0.078125 C 2.179688 0.078125 1.789062 -0.03125 1.4375 -0.25 C 1.082031 -0.46875 0.800781 -0.773438 0.59375 -1.171875 C 0.394531 -1.566406 0.296875 -2.023438 0.296875 -2.546875 Z M 4.265625 -2.515625 C 4.265625 -2.828125 4.203125 -3.09375 4.078125 -3.3125 C 3.960938 -3.539062 3.800781 -3.710938 3.59375 -3.828125 C 3.382812 -3.953125 3.164062 -4.015625 2.9375 -4.015625 C 2.695312 -4.015625 2.476562 -3.953125 2.28125 -3.828125 C 2.082031 -3.710938 1.921875 -3.546875 1.796875 -3.328125 C 1.671875 -3.109375 1.609375 -2.847656 1.609375 -2.546875 C 1.609375 -2.242188 1.671875 -1.976562 1.796875 -1.75 C 1.921875 -1.519531 2.082031 -1.34375 2.28125 -1.21875 C 2.488281 -1.09375 2.707031 -1.03125 2.9375 -1.03125 C 3.164062 -1.03125 3.382812 -1.085938 3.59375 -1.203125 C 3.800781 -1.328125 3.960938 -1.5 4.078125 -1.71875 C 4.203125 -1.945312 4.265625 -2.210938 4.265625 -2.515625 Z M 4.265625 -2.515625 "/></g></g><g style="fill:#0194ff;fill-opacity:1;"><g transform="translate(58.089648, 53.352562)"><path style="stroke:none" d="M 1.28125 -5.640625 C 1.050781 -5.640625 0.859375 -5.710938 0.703125 -5.859375 C 0.554688 -6.003906 0.484375 -6.179688 0.484375 -6.390625 C 0.484375 -6.609375 0.554688 -6.785156 0.703125 -6.921875 C 0.859375 -7.066406 1.050781 -7.140625 1.28125 -7.140625 C 1.5 -7.140625 1.679688 -7.066406 1.828125 -6.921875 C 1.984375 -6.785156 2.0625 -6.609375 2.0625 -6.390625 C 2.0625 -6.179688 1.984375 -6.003906 1.828125 -5.859375 C 1.679688 -5.710938 1.5 -5.640625 1.28125 -5.640625 Z M 1.90625 -5.046875 L 1.90625 0 L 0.625 0 L 0.625 -5.046875 Z M 1.90625 -5.046875 "/></g></g><g style="fill:#0194ff;fill-opacity:1;"><g transform="translate(60.622774, 53.352562)"><path style="stroke:none" d="M 3.609375 0 L 1.90625 -2.15625 L 1.90625 0 L 0.625 0 L 0.625 -6.734375 L 1.90625 -6.734375 L 1.90625 -2.90625 L 3.59375 -5.046875 L 5.25 -5.046875 L 3.03125 -2.515625 L 5.28125 0 Z M 3.609375 0 "/></g></g><g style="fill:#0194ff;fill-opacity:1;"><g transform="translate(65.944158, 53.352562)"><path style="stroke:none" d="M 0.296875 -2.546875 C 0.296875 -3.054688 0.394531 -3.503906 0.59375 -3.890625 C 0.800781 -4.285156 1.078125 -4.585938 1.421875 -4.796875 C 1.773438 -5.015625 2.171875 -5.125 2.609375 -5.125 C 2.984375 -5.125 3.3125 -5.046875 3.59375 -4.890625 C 3.875 -4.742188 4.097656 -4.554688 4.265625 -4.328125 L 4.265625 -5.046875 L 5.5625 -5.046875 L 5.5625 0 L 4.265625 0 L 4.265625 -0.734375 C 4.109375 -0.492188 3.882812 -0.296875 3.59375 -0.140625 C 3.300781 0.00390625 2.96875 0.078125 2.59375 0.078125 C 2.164062 0.078125 1.773438 -0.03125 1.421875 -0.25 C 1.078125 -0.46875 0.800781 -0.773438 0.59375 -1.171875 C 0.394531 -1.566406 0.296875 -2.023438 0.296875 -2.546875 Z M 4.265625 -2.515625 C 4.265625 -2.828125 4.203125 -3.09375 4.078125 -3.3125 C 3.960938 -3.539062 3.800781 -3.710938 3.59375 -3.828125 C 3.382812 -3.953125 3.164062 -4.015625 2.9375 -4.015625 C 2.695312 -4.015625 2.476562 -3.953125 2.28125 -3.828125 C 2.082031 -3.710938 1.921875 -3.546875 1.796875 -3.328125 C 1.671875 -3.109375 1.609375 -2.847656 1.609375 -2.546875 C 1.609375 -2.242188 1.671875 -1.976562 1.796875 -1.75 C 1.921875 -1.519531 2.082031 -1.34375 2.28125 -1.21875 C 2.488281 -1.09375 2.707031 -1.03125 2.9375 -1.03125 C 3.164062 -1.03125 3.382812 -1.085938 3.59375 -1.203125 C 3.800781 -1.328125 3.960938 -1.5 4.078125 -1.71875 C 4.203125 -1.945312 4.265625 -2.210938 4.265625 -2.515625 Z M 4.265625 -2.515625 "/></g></g><g style="fill:#0194ff;fill-opacity:1;"><g transform="translate(72.122064, 53.352562)"><path style="stroke:none" d="M 1.90625 -4.265625 C 2.070312 -4.523438 2.285156 -4.734375 2.546875 -4.890625 C 2.804688 -5.046875 3.109375 -5.125 3.453125 -5.125 L 3.453125 -3.78125 L 3.109375 -3.78125 C 2.710938 -3.78125 2.410156 -3.6875 2.203125 -3.5 C 2.003906 -3.3125 1.90625 -2.984375 1.90625 -2.515625 L 1.90625 0 L 0.625 0 L 0.625 -5.046875 L 1.90625 -5.046875 Z M 1.90625 -4.265625 "/></g></g><g style="fill:#0194ff;fill-opacity:1;"><g transform="translate(75.803294, 53.352562)"><path style="stroke:none" d="M 1.28125 -5.640625 C 1.050781 -5.640625 0.859375 -5.710938 0.703125 -5.859375 C 0.554688 -6.003906 0.484375 -6.179688 0.484375 -6.390625 C 0.484375 -6.609375 0.554688 -6.785156 0.703125 -6.921875 C 0.859375 -7.066406 1.050781 -7.140625 1.28125 -7.140625 C 1.5 -7.140625 1.679688 -7.066406 1.828125 -6.921875 C 1.984375 -6.785156 2.0625 -6.609375 2.0625 -6.390625 C 2.0625 -6.179688 1.984375 -6.003906 1.828125 -5.859375 C 1.679688 -5.710938 1.5 -5.640625 1.28125 -5.640625 Z M 1.90625 -5.046875 L 1.90625 0 L 0.625 0 L 0.625 -5.046875 Z M 1.90625 -5.046875 "/></g></g><g style="fill:#000000;fill-opacity:1;"><g transform="translate(36.775377, 70.402108)"><path style="stroke:none" d="M 1.484375 -1.34375 C 1.484375 -1.1875 1.425781 -1.054688 1.3125 -0.953125 C 1.207031 -0.847656 1.046875 -0.796875 0.828125 -0.796875 L 0.453125 -0.796875 L 0.453125 0 L 0.203125 0 L 0.203125 -1.90625 L 0.828125 -1.90625 C 1.046875 -1.90625 1.207031 -1.851562 1.3125 -1.75 C 1.425781 -1.644531 1.484375 -1.507812 1.484375 -1.34375 Z M 0.828125 -1 C 0.960938 -1 1.0625 -1.03125 1.125 -1.09375 C 1.195312 -1.15625 1.234375 -1.238281 1.234375 -1.34375 C 1.234375 -1.582031 1.097656 -1.703125 0.828125 -1.703125 L 0.453125 -1.703125 L 0.453125 -1 Z M 0.828125 -1 "/></g></g><g style="fill:#000000;fill-opacity:1;"><g transform="translate(38.354128, 70.402108)"><path style="stroke:none" d="M 0.859375 0.03125 C 0.722656 0.03125 0.597656 0 0.484375 -0.0625 C 0.367188 -0.132812 0.28125 -0.226562 0.21875 -0.34375 C 0.15625 -0.457031 0.125 -0.59375 0.125 -0.75 C 0.125 -0.90625 0.15625 -1.039062 0.21875 -1.15625 C 0.28125 -1.269531 0.367188 -1.359375 0.484375 -1.421875 C 0.597656 -1.484375 0.726562 -1.515625 0.875 -1.515625 C 1.019531 -1.515625 1.148438 -1.484375 1.265625 -1.421875 C 1.378906 -1.359375 1.46875 -1.269531 1.53125 -1.15625 C 1.59375 -1.039062 1.625 -0.90625 1.625 -0.75 C 1.625 -0.59375 1.585938 -0.457031 1.515625 -0.34375 C 1.453125 -0.226562 1.363281 -0.132812 1.25 -0.0625 C 1.132812 0 1.003906 0.03125 0.859375 0.03125 Z M 0.859375 -0.1875 C 0.953125 -0.1875 1.035156 -0.207031 1.109375 -0.25 C 1.191406 -0.289062 1.253906 -0.351562 1.296875 -0.4375 C 1.347656 -0.53125 1.375 -0.632812 1.375 -0.75 C 1.375 -0.875 1.347656 -0.976562 1.296875 -1.0625 C 1.253906 -1.144531 1.191406 -1.207031 1.109375 -1.25 C 1.035156 -1.289062 0.957031 -1.3125 0.875 -1.3125 C 0.78125 -1.3125 0.695312 -1.289062 0.625 -1.25 C 0.550781 -1.207031 0.488281 -1.144531 0.4375 -1.0625 C 0.394531 -0.976562 0.375 -0.875 0.375 -0.75 C 0.375 -0.625 0.394531 -0.519531 0.4375 -0.4375 C 0.476562 -0.351562 0.535156 -0.289062 0.609375 -0.25 C 0.691406 -0.207031 0.773438 -0.1875 0.859375 -0.1875 Z M 0.859375 -0.1875 "/></g></g><g style="fill:#000000;fill-opacity:1;"><g transform="translate(40.099209, 70.402108)"><path style="stroke:none" d="M 2.203125 -1.5 L 1.734375 0 L 1.484375 0 L 1.125 -1.1875 L 0.765625 0 L 0.5 0 L 0.03125 -1.5 L 0.28125 -1.5 L 0.625 -0.234375 L 1 -1.5 L 1.265625 -1.5 L 1.625 -0.234375 L 1.953125 -1.5 Z M 2.203125 -1.5 "/></g></g><g style="fill:#000000;fill-opacity:1;"><g transform="translate(42.335095, 70.402108)"><path style="stroke:none" d="M 1.578125 -0.8125 C 1.578125 -0.757812 1.570312 -0.707031 1.5625 -0.65625 L 0.375 -0.65625 C 0.382812 -0.507812 0.429688 -0.394531 0.515625 -0.3125 C 0.609375 -0.226562 0.722656 -0.1875 0.859375 -0.1875 C 0.960938 -0.1875 1.050781 -0.210938 1.125 -0.265625 C 1.195312 -0.316406 1.25 -0.382812 1.28125 -0.46875 L 1.546875 -0.46875 C 1.503906 -0.320312 1.421875 -0.203125 1.296875 -0.109375 C 1.179688 -0.015625 1.035156 0.03125 0.859375 0.03125 C 0.710938 0.03125 0.582031 0 0.46875 -0.0625 C 0.363281 -0.132812 0.28125 -0.226562 0.21875 -0.34375 C 0.15625 -0.457031 0.125 -0.59375 0.125 -0.75 C 0.125 -0.90625 0.148438 -1.039062 0.203125 -1.15625 C 0.265625 -1.269531 0.351562 -1.359375 0.46875 -1.421875 C 0.582031 -1.484375 0.710938 -1.515625 0.859375 -1.515625 C 1.003906 -1.515625 1.128906 -1.484375 1.234375 -1.421875 C 1.347656 -1.367188 1.429688 -1.285156 1.484375 -1.171875 C 1.546875 -1.066406 1.578125 -0.945312 1.578125 -0.8125 Z M 1.328125 -0.859375 C 1.328125 -0.953125 1.300781 -1.03125 1.25 -1.09375 C 1.207031 -1.164062 1.148438 -1.21875 1.078125 -1.25 C 1.015625 -1.289062 0.9375 -1.3125 0.84375 -1.3125 C 0.71875 -1.3125 0.609375 -1.269531 0.515625 -1.1875 C 0.429688 -1.113281 0.382812 -1.003906 0.375 -0.859375 Z M 1.328125 -0.859375 "/></g></g><g style="fill:#000000;fill-opacity:1;"><g transform="translate(44.025641, 70.402108)"><path style="stroke:none" d="M 0.453125 -1.25 C 0.503906 -1.34375 0.566406 -1.410156 0.640625 -1.453125 C 0.722656 -1.503906 0.820312 -1.53125 0.9375 -1.53125 L 0.9375 -1.265625 L 0.875 -1.265625 C 0.59375 -1.265625 0.453125 -1.113281 0.453125 -0.8125 L 0.453125 0 L 0.203125 0 L 0.203125 -1.5 L 0.453125 -1.5 Z M 0.453125 -1.25 "/></g></g><g style="fill:#000000;fill-opacity:1;"><g transform="translate(45.042695, 70.402108)"><path style="stroke:none" d="M 1.578125 -0.8125 C 1.578125 -0.757812 1.570312 -0.707031 1.5625 -0.65625 L 0.375 -0.65625 C 0.382812 -0.507812 0.429688 -0.394531 0.515625 -0.3125 C 0.609375 -0.226562 0.722656 -0.1875 0.859375 -0.1875 C 0.960938 -0.1875 1.050781 -0.210938 1.125 -0.265625 C 1.195312 -0.316406 1.25 -0.382812 1.28125 -0.46875 L 1.546875 -0.46875 C 1.503906 -0.320312 1.421875 -0.203125 1.296875 -0.109375 C 1.179688 -0.015625 1.035156 0.03125 0.859375 0.03125 C 0.710938 0.03125 0.582031 0 0.46875 -0.0625 C 0.363281 -0.132812 0.28125 -0.226562 0.21875 -0.34375 C 0.15625 -0.457031 0.125 -0.59375 0.125 -0.75 C 0.125 -0.90625 0.148438 -1.039062 0.203125 -1.15625 C 0.265625 -1.269531 0.351562 -1.359375 0.46875 -1.421875 C 0.582031 -1.484375 0.710938 -1.515625 0.859375 -1.515625 C 1.003906 -1.515625 1.128906 -1.484375 1.234375 -1.421875 C 1.347656 -1.367188 1.429688 -1.285156 1.484375 -1.171875 C 1.546875 -1.066406 1.578125 -0.945312 1.578125 -0.8125 Z M 1.328125 -0.859375 C 1.328125 -0.953125 1.300781 -1.03125 1.25 -1.09375 C 1.207031 -1.164062 1.148438 -1.21875 1.078125 -1.25 C 1.015625 -1.289062 0.9375 -1.3125 0.84375 -1.3125 C 0.71875 -1.3125 0.609375 -1.269531 0.515625 -1.1875 C 0.429688 -1.113281 0.382812 -1.003906 0.375 -0.859375 Z M 1.328125 -0.859375 "/></g></g><g style="fill:#000000;fill-opacity:1;"><g transform="translate(46.733241, 70.402108)"><path style="stroke:none" d="M 0.125 -0.75 C 0.125 -0.90625 0.148438 -1.039062 0.203125 -1.15625 C 0.265625 -1.269531 0.347656 -1.359375 0.453125 -1.421875 C 0.566406 -1.484375 0.691406 -1.515625 0.828125 -1.515625 C 0.941406 -1.515625 1.050781 -1.488281 1.15625 -1.4375 C 1.257812 -1.382812 1.335938 -1.316406 1.390625 -1.234375 L 1.390625 -2.03125 L 1.640625 -2.03125 L 1.640625 0 L 1.390625 0 L 1.390625 -0.28125 C 1.335938 -0.1875 1.257812 -0.109375 1.15625 -0.046875 C 1.0625 0.00390625 0.953125 0.03125 0.828125 0.03125 C 0.691406 0.03125 0.566406 0 0.453125 -0.0625 C 0.347656 -0.132812 0.265625 -0.226562 0.203125 -0.34375 C 0.148438 -0.46875 0.125 -0.601562 0.125 -0.75 Z M 1.390625 -0.75 C 1.390625 -0.863281 1.363281 -0.960938 1.3125 -1.046875 C 1.269531 -1.128906 1.207031 -1.191406 1.125 -1.234375 C 1.050781 -1.285156 0.96875 -1.3125 0.875 -1.3125 C 0.78125 -1.3125 0.695312 -1.285156 0.625 -1.234375 C 0.550781 -1.191406 0.488281 -1.128906 0.4375 -1.046875 C 0.394531 -0.960938 0.375 -0.863281 0.375 -0.75 C 0.375 -0.632812 0.394531 -0.535156 0.4375 -0.453125 C 0.488281 -0.367188 0.550781 -0.300781 0.625 -0.25 C 0.695312 -0.207031 0.78125 -0.1875 0.875 -0.1875 C 0.96875 -0.1875 1.050781 -0.207031 1.125 -0.25 C 1.207031 -0.300781 1.269531 -0.367188 1.3125 -0.453125 C 1.363281 -0.535156 1.390625 -0.632812 1.390625 -0.75 Z M 1.390625 -0.75 "/></g></g><g style="fill:#000000;fill-opacity:1;"><g transform="translate(48.576483, 70.402108)"><path style="stroke:none" d=""/></g></g><g style="fill:#000000;fill-opacity:1;"><g transform="translate(49.30451, 70.402108)"><path style="stroke:none" d="M 1.171875 -0.984375 C 1.234375 -0.972656 1.289062 -0.941406 1.34375 -0.890625 C 1.40625 -0.847656 1.453125 -0.789062 1.484375 -0.71875 C 1.523438 -0.65625 1.546875 -0.585938 1.546875 -0.515625 C 1.546875 -0.410156 1.519531 -0.320312 1.46875 -0.25 C 1.414062 -0.175781 1.34375 -0.113281 1.25 -0.0625 C 1.15625 -0.0195312 1.046875 0 0.921875 0 L 0.203125 0 L 0.203125 -1.90625 L 0.890625 -1.90625 C 1.023438 -1.90625 1.132812 -1.882812 1.21875 -1.84375 C 1.3125 -1.800781 1.378906 -1.742188 1.421875 -1.671875 C 1.472656 -1.597656 1.5 -1.515625 1.5 -1.421875 C 1.5 -1.304688 1.46875 -1.210938 1.40625 -1.140625 C 1.34375 -1.066406 1.265625 -1.015625 1.171875 -0.984375 Z M 0.453125 -1.078125 L 0.875 -1.078125 C 0.988281 -1.078125 1.078125 -1.101562 1.140625 -1.15625 C 1.210938 -1.21875 1.25 -1.296875 1.25 -1.390625 C 1.25 -1.484375 1.210938 -1.554688 1.140625 -1.609375 C 1.078125 -1.671875 0.988281 -1.703125 0.875 -1.703125 L 0.453125 -1.703125 Z M 0.90625 -0.203125 C 1.019531 -0.203125 1.113281 -0.226562 1.1875 -0.28125 C 1.257812 -0.34375 1.296875 -0.425781 1.296875 -0.53125 C 1.296875 -0.632812 1.257812 -0.71875 1.1875 -0.78125 C 1.113281 -0.84375 1.015625 -0.875 0.890625 -0.875 L 0.453125 -0.875 L 0.453125 -0.203125 Z M 0.90625 -0.203125 "/></g></g><g style="fill:#000000;fill-opacity:1;"><g transform="translate(50.975969, 70.402108)"><path style="stroke:none" d="M 1.5 -1.5 L 0.59375 0.703125 L 0.34375 0.703125 L 0.640625 -0.015625 L 0.03125 -1.5 L 0.3125 -1.5 L 0.78125 -0.28125 L 1.25 -1.5 Z M 1.5 -1.5 "/></g></g><g style="fill:#0194ff;fill-opacity:1;"><g transform="translate(32.433544, 75.597954)"><path style="stroke:none" d="M 3.46875 -2.90625 L 3.46875 0 L 2.875 0 L 2.875 -1.890625 L 2.09375 0 L 1.65625 0 L 0.875 -1.890625 L 0.875 0 L 0.28125 0 L 0.28125 -2.90625 L 0.953125 -2.90625 L 1.875 -0.75 L 2.796875 -2.90625 Z M 3.46875 -2.90625 "/></g></g><g style="fill:#0194ff;fill-opacity:1;"><g transform="translate(36.181984, 75.597954)"><path style="stroke:none" d="M 2.5 -2.3125 L 1.0625 1.09375 L 0.453125 1.09375 L 0.953125 -0.0625 L 0.015625 -2.3125 L 0.671875 -2.3125 L 1.265625 -0.703125 L 1.875 -2.3125 Z M 2.5 -2.3125 "/></g></g><g style="fill:#0194ff;fill-opacity:1;"><g transform="translate(38.704574, 75.597954)"><path style="stroke:none" d="M 0.140625 -1.453125 C 0.140625 -1.742188 0.203125 -2 0.328125 -2.21875 C 0.460938 -2.445312 0.640625 -2.625 0.859375 -2.75 C 1.085938 -2.882812 1.34375 -2.953125 1.625 -2.953125 C 1.945312 -2.953125 2.226562 -2.867188 2.46875 -2.703125 C 2.71875 -2.535156 2.890625 -2.300781 2.984375 -2 L 2.3125 -2 C 2.25 -2.144531 2.15625 -2.25 2.03125 -2.3125 C 1.914062 -2.382812 1.78125 -2.421875 1.625 -2.421875 C 1.445312 -2.421875 1.289062 -2.378906 1.15625 -2.296875 C 1.03125 -2.222656 0.929688 -2.113281 0.859375 -1.96875 C 0.785156 -1.820312 0.75 -1.648438 0.75 -1.453125 C 0.75 -1.265625 0.785156 -1.097656 0.859375 -0.953125 C 0.929688 -0.804688 1.03125 -0.691406 1.15625 -0.609375 C 1.289062 -0.535156 1.445312 -0.5 1.625 -0.5 C 1.78125 -0.5 1.914062 -0.53125 2.03125 -0.59375 C 2.15625 -0.664062 2.25 -0.773438 2.3125 -0.921875 L 2.984375 -0.921875 C 2.890625 -0.617188 2.71875 -0.382812 2.46875 -0.21875 C 2.226562 -0.0507812 1.945312 0.03125 1.625 0.03125 C 1.34375 0.03125 1.085938 -0.03125 0.859375 -0.15625 C 0.640625 -0.289062 0.460938 -0.46875 0.328125 -0.6875 C 0.203125 -0.914062 0.140625 -1.171875 0.140625 -1.453125 Z M 0.140625 -1.453125 "/></g></g><g style="fill:#0194ff;fill-opacity:1;"><g transform="translate(41.906802, 75.597954)"><path style="stroke:none" d="M 0.140625 -1.15625 C 0.140625 -1.394531 0.1875 -1.601562 0.28125 -1.78125 C 0.375 -1.96875 0.5 -2.109375 0.65625 -2.203125 C 0.8125 -2.296875 0.988281 -2.34375 1.1875 -2.34375 C 1.363281 -2.34375 1.515625 -2.304688 1.640625 -2.234375 C 1.773438 -2.171875 1.878906 -2.085938 1.953125 -1.984375 L 1.953125 -2.3125 L 2.546875 -2.3125 L 2.546875 0 L 1.953125 0 L 1.953125 -0.34375 C 1.878906 -0.226562 1.773438 -0.132812 1.640625 -0.0625 C 1.515625 0 1.363281 0.03125 1.1875 0.03125 C 0.988281 0.03125 0.8125 -0.015625 0.65625 -0.109375 C 0.5 -0.210938 0.375 -0.351562 0.28125 -0.53125 C 0.1875 -0.71875 0.140625 -0.925781 0.140625 -1.15625 Z M 1.953125 -1.15625 C 1.953125 -1.300781 1.925781 -1.421875 1.875 -1.515625 C 1.820312 -1.617188 1.742188 -1.695312 1.640625 -1.75 C 1.546875 -1.800781 1.445312 -1.828125 1.34375 -1.828125 C 1.238281 -1.828125 1.140625 -1.800781 1.046875 -1.75 C 0.953125 -1.695312 0.875 -1.617188 0.8125 -1.515625 C 0.757812 -1.421875 0.734375 -1.300781 0.734375 -1.15625 C 0.734375 -1.019531 0.757812 -0.898438 0.8125 -0.796875 C 0.875 -0.691406 0.953125 -0.609375 1.046875 -0.546875 C 1.140625 -0.492188 1.238281 -0.46875 1.34375 -0.46875 C 1.445312 -0.46875 1.546875 -0.492188 1.640625 -0.546875 C 1.742188 -0.609375 1.820312 -0.6875 1.875 -0.78125 C 1.925781 -0.882812 1.953125 -1.007812 1.953125 -1.15625 Z M 1.953125 -1.15625 "/></g></g><g style="fill:#0194ff;fill-opacity:1;"><g transform="translate(44.733771, 75.597954)"><path style="stroke:none" d="M 1.5625 -2.34375 C 1.84375 -2.34375 2.066406 -2.253906 2.234375 -2.078125 C 2.398438 -1.910156 2.484375 -1.671875 2.484375 -1.359375 L 2.484375 0 L 1.90625 0 L 1.90625 -1.28125 C 1.90625 -1.457031 1.859375 -1.59375 1.765625 -1.6875 C 1.671875 -1.789062 1.546875 -1.84375 1.390625 -1.84375 C 1.234375 -1.84375 1.109375 -1.789062 1.015625 -1.6875 C 0.921875 -1.59375 0.875 -1.457031 0.875 -1.28125 L 0.875 0 L 0.28125 0 L 0.28125 -2.3125 L 0.875 -2.3125 L 0.875 -2.015625 C 0.945312 -2.117188 1.046875 -2.195312 1.171875 -2.25 C 1.296875 -2.3125 1.425781 -2.34375 1.5625 -2.34375 Z M 1.5625 -2.34375 "/></g></g><g style="fill:#0194ff;fill-opacity:1;"><g transform="translate(47.489854, 75.597954)"><path style="stroke:none" d="M 0.96875 -1.828125 L 0.96875 -0.71875 C 0.96875 -0.632812 0.984375 -0.578125 1.015625 -0.546875 C 1.054688 -0.515625 1.125 -0.5 1.21875 -0.5 L 1.484375 -0.5 L 1.484375 0 L 1.125 0 C 0.625 0 0.375 -0.238281 0.375 -0.71875 L 0.375 -1.828125 L 0.109375 -1.828125 L 0.109375 -2.3125 L 0.375 -2.3125 L 0.375 -2.875 L 0.96875 -2.875 L 0.96875 -2.3125 L 1.484375 -2.3125 L 1.484375 -1.828125 Z M 0.96875 -1.828125 "/></g></g><g style="fill:#0194ff;fill-opacity:1;"><g transform="translate(49.107648, 75.597954)"><path style="stroke:none" d="M 2.4375 -1.203125 C 2.4375 -1.117188 2.429688 -1.046875 2.421875 -0.984375 L 0.734375 -0.984375 C 0.742188 -0.816406 0.800781 -0.6875 0.90625 -0.59375 C 1.007812 -0.5 1.132812 -0.453125 1.28125 -0.453125 C 1.5 -0.453125 1.65625 -0.539062 1.75 -0.71875 L 2.375 -0.71875 C 2.3125 -0.5 2.179688 -0.316406 1.984375 -0.171875 C 1.796875 -0.0351562 1.566406 0.03125 1.296875 0.03125 C 1.078125 0.03125 0.878906 -0.015625 0.703125 -0.109375 C 0.523438 -0.210938 0.382812 -0.351562 0.28125 -0.53125 C 0.1875 -0.707031 0.140625 -0.914062 0.140625 -1.15625 C 0.140625 -1.394531 0.1875 -1.601562 0.28125 -1.78125 C 0.382812 -1.96875 0.519531 -2.109375 0.6875 -2.203125 C 0.863281 -2.296875 1.066406 -2.34375 1.296875 -2.34375 C 1.515625 -2.34375 1.710938 -2.296875 1.890625 -2.203125 C 2.066406 -2.109375 2.203125 -1.972656 2.296875 -1.796875 C 2.390625 -1.628906 2.4375 -1.429688 2.4375 -1.203125 Z M 1.828125 -1.375 C 1.828125 -1.519531 1.773438 -1.640625 1.671875 -1.734375 C 1.566406 -1.828125 1.4375 -1.875 1.28125 -1.875 C 1.132812 -1.875 1.007812 -1.828125 0.90625 -1.734375 C 0.8125 -1.648438 0.753906 -1.53125 0.734375 -1.375 Z M 1.828125 -1.375 "/></g></g><g style="fill:#0194ff;fill-opacity:1;"><g transform="translate(51.680271, 75.597954)"><path style="stroke:none" d="M 2.4375 -1.203125 C 2.4375 -1.117188 2.429688 -1.046875 2.421875 -0.984375 L 0.734375 -0.984375 C 0.742188 -0.816406 0.800781 -0.6875 0.90625 -0.59375 C 1.007812 -0.5 1.132812 -0.453125 1.28125 -0.453125 C 1.5 -0.453125 1.65625 -0.539062 1.75 -0.71875 L 2.375 -0.71875 C 2.3125 -0.5 2.179688 -0.316406 1.984375 -0.171875 C 1.796875 -0.0351562 1.566406 0.03125 1.296875 0.03125 C 1.078125 0.03125 0.878906 -0.015625 0.703125 -0.109375 C 0.523438 -0.210938 0.382812 -0.351562 0.28125 -0.53125 C 0.1875 -0.707031 0.140625 -0.914062 0.140625 -1.15625 C 0.140625 -1.394531 0.1875 -1.601562 0.28125 -1.78125 C 0.382812 -1.96875 0.519531 -2.109375 0.6875 -2.203125 C 0.863281 -2.296875 1.066406 -2.34375 1.296875 -2.34375 C 1.515625 -2.34375 1.710938 -2.296875 1.890625 -2.203125 C 2.066406 -2.109375 2.203125 -1.972656 2.296875 -1.796875 C 2.390625 -1.628906 2.4375 -1.429688 2.4375 -1.203125 Z M 1.828125 -1.375 C 1.828125 -1.519531 1.773438 -1.640625 1.671875 -1.734375 C 1.566406 -1.828125 1.4375 -1.875 1.28125 -1.875 C 1.132812 -1.875 1.007812 -1.828125 0.90625 -1.734375 C 0.8125 -1.648438 0.753906 -1.53125 0.734375 -1.375 Z M 1.828125 -1.375 "/></g></g><g style="fill:#0194ff;fill-opacity:1;"><g transform="translate(54.252895, 75.597954)"><path style="stroke:none" d="M 1.5625 -2.34375 C 1.84375 -2.34375 2.066406 -2.253906 2.234375 -2.078125 C 2.398438 -1.910156 2.484375 -1.671875 2.484375 -1.359375 L 2.484375 0 L 1.90625 0 L 1.90625 -1.28125 C 1.90625 -1.457031 1.859375 -1.59375 1.765625 -1.6875 C 1.671875 -1.789062 1.546875 -1.84375 1.390625 -1.84375 C 1.234375 -1.84375 1.109375 -1.789062 1.015625 -1.6875 C 0.921875 -1.59375 0.875 -1.457031 0.875 -1.28125 L 0.875 0 L 0.28125 0 L 0.28125 -2.3125 L 0.875 -2.3125 L 0.875 -2.015625 C 0.945312 -2.117188 1.046875 -2.195312 1.171875 -2.25 C 1.296875 -2.3125 1.425781 -2.34375 1.5625 -2.34375 Z M 1.5625 -2.34375 "/></g></g></g></svg>